<?xml version="1.0" encoding="UTF-8"?>
<svg width="116px" height="116px" viewBox="0 0 116 116" version="1.1" xmlns="http://www.w3.org/2000/svg" xmlns:xlink="http://www.w3.org/1999/xlink">
    <!-- Generator: Sketch 48.2 (47327) - http://www.bohemiancoding.com/sketch -->
    <title>Icon</title>
    <desc>Created with Sketch.</desc>
    <defs></defs>
    <g id="Symbols" stroke="none" stroke-width="1" fill="none" fill-rule="evenodd">
        <g id="Icon">
            <g id="Group" transform="translate(0.000000, 13.000000)">
                <path d="M91.976,25.142 C91.162,25.142 90.358,25.186 89.566,25.268 C85.889,11.073 72.994,0.59 57.65,0.59 C42.306,0.59 29.411,11.073 25.733,25.268 C24.941,25.186 24.137,25.142 23.323,25.142 C10.514,25.142 0.13,35.525 0.13,48.334 C0.13,61.144 10.514,71.528 23.323,71.528 L23.323,85.412 C23.323,85.412 23.419,89.8 31.221,89.8 L84.079,89.8 C91.88,89.8 91.976,85.412 91.976,85.412 L91.976,71.528 C104.785,71.528 115.169,61.144 115.169,48.334 C115.169,35.525 104.785,25.142 91.976,25.142" id="Fill-4" fill="#42BAC6"></path>
                <path d="M75.798,46.417 C72.906,49.837 71.28,54.142 71.392,58.626 L72.188,89.794 L67.76,89.794 L68.556,58.626 C68.667,54.142 67.042,49.837 64.149,46.417 C61.716,43.547 60.147,38.939 60.147,33.737 C60.147,25.037 64.542,17.985 69.968,17.985 C75.406,17.985 79.801,25.037 79.801,33.737 C79.801,38.939 78.231,43.547 75.798,46.417" id="Fill-5" fill="#FFFFFE"></path>
                <path d="M51.469,19.218 L51.469,41.82 C51.469,44.096 50.505,46.159 48.969,47.617 C46.267,50.173 44.776,53.761 44.877,57.483 L45.695,89.794 L41.267,89.794 L42.085,57.483 C42.186,53.761 40.706,50.173 37.993,47.617 C36.457,46.159 35.493,44.096 35.493,41.82 L35.493,19.218 C35.493,18.523 36.064,17.974 36.76,17.985 C37.432,18.007 37.948,18.59 37.948,19.263 L37.948,36.809 C37.948,37.381 38.408,37.84 38.979,37.84 C39.54,37.84 40,37.381 40,36.809 L40,19.218 C40,18.523 40.572,17.974 41.267,17.985 C41.939,18.007 42.455,18.59 42.455,19.263 L42.455,36.809 C42.455,37.381 42.915,37.84 43.487,37.84 C44.047,37.84 44.507,37.381 44.507,36.809 L44.507,19.218 C44.507,18.523 45.079,17.974 45.774,17.985 C46.446,18.007 46.962,18.59 46.962,19.263 L46.962,36.809 C46.962,37.381 47.422,37.84 47.994,37.84 C48.554,37.84 49.014,37.381 49.014,36.809 L49.014,19.263 C49.014,18.59 49.53,18.007 50.202,17.985 C50.897,17.974 51.469,18.523 51.469,19.218" id="Fill-6" fill="#FFFFFE"></path>
                <path d="M80.148,50.767 C77.256,54.187 75.63,58.492 75.742,62.977 L76.426,89.794 L72.21,89.794 L72.906,62.977 C72.973,60.499 72.479,58.077 71.56,55.835 C72.031,52.371 73.511,49.119 75.798,46.417 C78.231,43.547 79.801,38.939 79.801,33.737 C79.801,29.589 78.792,25.822 77.155,23.008 C81.202,24.958 84.151,30.968 84.151,38.087 C84.151,43.289 82.581,47.897 80.148,50.767" id="Fill-7" fill="#1B8D97"></path>
                <path d="M44.511,36.81 L44.511,22.996 C44.419,23.168 44.354,23.355 44.354,23.563 L44.354,37.323 C44.445,37.169 44.511,37 44.511,36.81" id="Fill-8" fill="#1B8D97"></path>
                <path d="M49.017,36.81 L49.017,22.996 C48.925,23.168 48.86,23.355 48.86,23.563 L48.86,37.323 C48.951,37.169 49.017,37.001 49.017,36.81" id="Fill-9" fill="#1B8D97"></path>
                <path d="M40.004,36.81 L40.004,22.996 C39.913,23.168 39.848,23.355 39.848,23.563 L39.848,37.323 C39.938,37.169 40.004,37.001 40.004,36.81" id="Fill-10" fill="#1B8D97"></path>
                <path d="M55.819,23.568 L55.819,46.17 C55.819,48.446 54.855,50.509 53.319,51.967 C50.617,54.523 49.126,58.111 49.227,61.833 L49.944,89.794 L45.729,89.794 L46.435,61.833 C46.491,59.613 45.976,57.449 44.989,55.51 C45.37,52.516 46.749,49.713 48.969,47.617 C50.505,46.159 51.469,44.096 51.469,41.82 L51.469,41.675 C51.648,41.978 51.962,42.19 52.333,42.19 C52.904,42.19 53.364,41.731 53.364,41.159 L53.364,23.613 C53.364,22.94 53.88,22.357 54.552,22.335 C55.248,22.324 55.819,22.873 55.819,23.568" id="Fill-11" fill="#1B8D97"></path>
            </g>
        </g>
    </g>
</svg>