<?xml version="1.0" encoding="UTF-8"?>
<svg width="64px" height="64px" viewBox="0 0 64 64" version="1.1" xmlns="http://www.w3.org/2000/svg" xmlns:xlink="http://www.w3.org/1999/xlink">
    <!-- Generator: Sketch 48.2 (47327) - http://www.bohemiancoding.com/sketch -->
    <title>favicon</title>
    <desc>Created with Sketch.</desc>
    <defs></defs>
    <g id="Symbols" stroke="none" stroke-width="1" fill="none" fill-rule="evenodd">
        <g id="favicon" fill-rule="nonzero">
            <g transform="translate(0.000000, 7.000000)">
                <path d="M50.7453793,13.8714483 C50.2962759,13.8714483 49.8526897,13.8957241 49.4157241,13.9409655 C47.3870345,6.10924138 40.2725517,0.325517241 31.8068966,0.325517241 C23.3412414,0.325517241 16.2267586,6.10924138 14.1975172,13.9409655 C13.7605517,13.8957241 13.3169655,13.8714483 12.8678621,13.8714483 C5.80082759,13.8714483 0.0717241379,19.6 0.0717241379,26.6670345 C0.0717241379,33.7346207 5.80082759,39.4637241 12.8678621,39.4637241 L12.8678621,47.1238621 C12.8678621,47.1238621 12.9208276,49.5448276 17.2253793,49.5448276 L46.3884138,49.5448276 C50.6924138,49.5448276 50.7453793,47.1238621 50.7453793,47.1238621 L50.7453793,39.4637241 C57.8124138,39.4637241 63.5415172,33.7346207 63.5415172,26.6670345 C63.5415172,19.6 57.8124138,13.8714483 50.7453793,13.8714483" id="Fill-4" fill="#42BAC6"></path>
                <path d="M41.8195862,25.6093793 C40.224,27.4962759 39.3268966,29.8714483 39.3886897,32.3453793 L39.8278621,49.5415172 L37.3848276,49.5415172 L37.824,32.3453793 C37.8852414,29.8714483 36.9886897,27.4962759 35.3925517,25.6093793 C34.0502069,24.025931 33.1845517,21.4835862 33.1845517,18.6135172 C33.1845517,13.8135172 35.6093793,9.92275862 38.6030345,9.92275862 C41.6033103,9.92275862 44.0281379,13.8135172 44.0281379,18.6135172 C44.0281379,21.4835862 43.161931,24.025931 41.8195862,25.6093793" id="Fill-5" fill="#FFFFFE"></path>
                <path d="M28.3966897,10.6030345 L28.3966897,23.0731034 C28.3966897,24.3288276 27.8648276,25.4670345 27.0173793,26.2714483 C25.5266207,27.6816552 24.704,29.6612414 24.7597241,31.7147586 L25.2110345,49.5415172 L22.768,49.5415172 L23.2193103,31.7147586 C23.2750345,29.6612414 22.4584828,27.6816552 20.9616552,26.2714483 C20.1142069,25.4670345 19.5823448,24.3288276 19.5823448,23.0731034 L19.5823448,10.6030345 C19.5823448,10.2195862 19.8973793,9.91668966 20.2813793,9.92275862 C20.6521379,9.93489655 20.9368276,10.2565517 20.9368276,10.6278621 L20.9368276,20.3084138 C20.9368276,20.624 21.1906207,20.8772414 21.5056552,20.8772414 C21.8151724,20.8772414 22.0689655,20.624 22.0689655,20.3084138 L22.0689655,10.6030345 C22.0689655,10.2195862 22.3845517,9.91668966 22.768,9.92275862 C23.1387586,9.93489655 23.4234483,10.2565517 23.4234483,10.6278621 L23.4234483,20.3084138 C23.4234483,20.624 23.6772414,20.8772414 23.9928276,20.8772414 C24.3017931,20.8772414 24.5555862,20.624 24.5555862,20.3084138 L24.5555862,10.6030345 C24.5555862,10.2195862 24.8711724,9.91668966 25.2546207,9.92275862 C25.6253793,9.93489655 25.910069,10.2565517 25.910069,10.6278621 L25.910069,20.3084138 C25.910069,20.624 26.1638621,20.8772414 26.4794483,20.8772414 C26.7884138,20.8772414 27.0422069,20.624 27.0422069,20.3084138 L27.0422069,10.6278621 C27.0422069,10.2565517 27.3268966,9.93489655 27.6976552,9.92275862 C28.0811034,9.91668966 28.3966897,10.2195862 28.3966897,10.6030345" id="Fill-6" fill="#FFFFFE"></path>
                <path d="M44.2195862,28.0093793 C42.624,29.8962759 41.7268966,32.2714483 41.7886897,34.745931 L42.166069,49.5415172 L39.84,49.5415172 L40.224,34.745931 C40.2609655,33.3787586 39.9884138,32.0424828 39.4813793,30.8055172 C39.7412414,28.8943448 40.5577931,27.1001379 41.8195862,25.6093793 C43.161931,24.025931 44.0281379,21.4835862 44.0281379,18.6135172 C44.0281379,16.3249655 43.4714483,14.2466207 42.5682759,12.694069 C44.8011034,13.769931 46.4281379,17.0857931 46.4281379,21.0135172 C46.4281379,23.8835862 45.561931,26.425931 44.2195862,28.0093793" id="Fill-7" fill="#1B8D97"></path>
                <path d="M24.5577931,20.3089655 L24.5577931,12.6874483 C24.5070345,12.7823448 24.4711724,12.8855172 24.4711724,13.0002759 L24.4711724,20.592 C24.5213793,20.5070345 24.5577931,20.4137931 24.5577931,20.3089655" id="Fill-8" fill="#1B8D97"></path>
                <path d="M27.0438621,20.3089655 L27.0438621,12.6874483 C26.9931034,12.7823448 26.9572414,12.8855172 26.9572414,13.0002759 L26.9572414,20.592 C27.0074483,20.5070345 27.0438621,20.4143448 27.0438621,20.3089655" id="Fill-9" fill="#1B8D97"></path>
                <path d="M22.0711724,20.3089655 L22.0711724,12.6874483 C22.0209655,12.7823448 21.9851034,12.8855172 21.9851034,13.0002759 L21.9851034,20.592 C22.0347586,20.5070345 22.0711724,20.4143448 22.0711724,20.3089655" id="Fill-10" fill="#1B8D97"></path>
                <path d="M30.7966897,13.0030345 L30.7966897,25.4731034 C30.7966897,26.7288276 30.2648276,27.8670345 29.4173793,28.6714483 C27.9266207,30.0816552 27.104,32.0612414 27.1597241,34.1147586 L27.5553103,49.5415172 L25.2297931,49.5415172 L25.6193103,34.1147586 C25.6502069,32.889931 25.366069,31.696 24.8215172,30.6262069 C25.0317241,28.9743448 25.7925517,27.4278621 27.0173793,26.2714483 C27.8648276,25.4670345 28.3966897,24.3288276 28.3966897,23.0731034 L28.3966897,22.9931034 C28.4954483,23.1602759 28.6686897,23.2772414 28.8733793,23.2772414 C29.1884138,23.2772414 29.4422069,23.024 29.4422069,22.7084138 L29.4422069,13.0278621 C29.4422069,12.6565517 29.7268966,12.3348966 30.0976552,12.3227586 C30.4816552,12.3166897 30.7966897,12.6195862 30.7966897,13.0030345" id="Fill-11" fill="#1B8D97"></path>
            </g>
        </g>
    </g>
</svg>